<?xml version="1.0" encoding="UTF-8" standalone="no"?>
<!-- Uploaded to: SVG Repo, www.svgrepo.com, Generator: SVG Repo Mixer Tools -->

<svg
   width="1200"
   height="1200"
   viewBox="0 0 36 36"
   fill="none"
   version="1.1"
   id="svg1"
   sodipodi:docname="lintkit.svg"
   xml:space="preserve"
   inkscape:export-filename="lintkit-logo.svg"
   inkscape:export-xdpi="96"
   inkscape:export-ydpi="96"
   xmlns:inkscape="http://www.inkscape.org/namespaces/inkscape"
   xmlns:sodipodi="http://sodipodi.sourceforge.net/DTD/sodipodi-0.dtd"
   xmlns="http://www.w3.org/2000/svg"
   xmlns:svg="http://www.w3.org/2000/svg"><defs
     id="defs1" /><sodipodi:namedview
     id="namedview1"
     pagecolor="#ffffff"
     bordercolor="#999999"
     borderopacity="1"
     inkscape:showpageshadow="2"
     inkscape:pageopacity="0"
     inkscape:pagecheckerboard="0"
     inkscape:deskcolor="#d1d1d1"
     inkscape:export-bgcolor="#ffffff00"><inkscape:page
       x="0"
       y="0"
       width="36"
       height="36"
       id="page2"
       margin="0"
       bleed="0" /></sodipodi:namedview><g
     inkscape:groupmode="layer"
     id="layer1"
     inkscape:label="Layer 1"><path
       class="st0"
       d="M 30.059299,12.293332 C 31.201742,10.519114 31.036867,8.8949528 30.34771,7.6732633 30.30981,7.5717012 30.26141,7.4908252 30.152799,7.4492012 L 29.782308,7.2816916 c -0.06572,-0.034675 -0.143215,-0.040071 -0.212231,-0.013821 -0.06974,0.025834 -0.124646,0.080321 -0.15131,0.1492564 l -1.138583,2.73985 c -0.03081,0.08016 -0.09928,0.139498 -0.182616,0.158862 l -0.621681,0.216505 c -0.05476,0.01289 -0.112647,0.0076 -0.164539,-0.01534 L 25.808061,9.8069745 c -0.06073,-0.02711 -0.108886,-0.076 -0.134306,-0.13752 L 25.443911,9.1154902 c -0.0258,-0.060809 -0.02696,-0.1294364 -0.0031,-0.1910906 L 26.481208,6.2637221 C 26.528018,6.1412502 26.475708,6.0037668 26.360686,5.942499 L 25.880735,5.7389927 c -0.09708,-0.051823 -0.182387,-0.017673 -0.296599,0.037304 -1.06989,0.5261185 -2.70593,2.1367237 -2.790213,3.7801158 -0.07463,1.4465365 0.327049,2.3447785 0.327049,2.3447785 0.200971,0.750033 0.147984,1.538987 -0.07385,1.923996 l -6.330895,10.46652 c -0.01248,0.02 -0.02454,0.03924 -0.0363,0.05965 -0.515377,0.892659 -0.207997,2.035419 0.654282,2.532776 0.86243,0.497925 2.026994,0.205502 2.542219,-0.687726 0.02395,-0.04148 0.0465,-0.08376 0.06652,-0.126536 l 5.838463,-11.087275 c 0.770036,-1.170641 3.028719,-0.748003 4.277892,-2.689268 z"
       id="path1-2"
       style="display:inline;stroke-width:0.0367292"
       sodipodi:nodetypes="cccccccccccccccccccccccccccc" /><path
       class="st0"
       d="m 11.817915,16.474257 c -0.897567,-0.989118 -1.9175581,-1.154385 -2.7773723,-0.933184 -0.068302,0.0065 -0.1256768,0.02287 -0.1689175,0.08246 l -0.1631055,0.199069 c -0.031966,0.0345 -0.04796,0.081 -0.043217,0.12749 0.00438,0.04687 0.028688,0.08937 0.066465,0.116959 l 1.4885693,1.144947 c 0.04396,0.03197 0.06902,0.08356 0.06721,0.137673 l 0.03053,0.415551 c -0.0011,0.0356 -0.01381,0.07011 -0.03634,0.09808 l -0.6803655,0.802764 c -0.026525,0.03268 -0.064303,0.05412 -0.106079,0.05959 l -0.376333,0.04977 c -0.041404,0.0058 -0.083552,-0.0047 -0.1173309,-0.02943 l -1.4562582,-1.07193 c -0.067209,-0.04867 -0.1598275,-0.03925 -0.2161334,0.02107 l -0.2030449,0.260095 c -0.047588,0.05086 -0.040683,0.108613 -0.025782,0.187446 0.1463905,0.740298 0.8630691,2.004389 1.8540001,2.325137 0.8721589,0.282598 1.4871288,0.184168 1.4871288,0.184168 0.491478,0 0.965149,0.161641 1.164196,0.360339 l 5.361907,5.585201 c 0.01018,0.0109 0.01997,0.02144 0.03052,0.03197 0.461327,0.461326 1.210343,0.460605 1.655674,0.0149 0.445704,-0.445704 0.4577,-1.2056 -0.004,-1.666926 -0.02144,-0.02144 -0.04359,-0.04215 -0.06646,-0.0614 l -5.822095,-5.385829 c -0.58956,-0.662559 0.03885,-1.974238 -0.943366,-3.055974 z"
       id="path1-7"
       sodipodi:nodetypes="cccccccccccccccccccccccccccc"
       style="stroke-width:0.0232477" /></g><style
     type="text/css"
     id="style1">
<![CDATA[
	.st0{fill:#323232;}
]]>
</style><style
     type="text/css"
     id="style1-5">
<![CDATA[
	.st0{fill:#323232;}
]]>
</style></svg>
